<svg version="1.1" id="Layer_1" xmlns="http://www.w3.org/2000/svg" xmlns:xlink="http://www.w3.org/1999/xlink" x="0px" y="0px"
	 width="100%" height="100%" viewBox="0 0 180 54" style="enable-background:new 0 0 180 54;" xml:space="preserve">
<style type="text/css">
<![CDATA[
	.st0{fill:#ED1C24;stroke:url(#SVGID_1_);stroke-width:0.25;stroke-miterlimit:10;}
	.st1{fill:#F15A29;stroke:url(#SVGID_3_);stroke-width:0.25;stroke-miterlimit:10;}
	.st2{fill:#1C75BC;}
	.st3{font-family:'Optima-Bold';}
	.st4{fill:#FFF200;stroke:url(#SVGID_2_);stroke-width:0.25;stroke-miterlimit:10;}
	.st5{fill:#2E3192;}
	.st6{opacity:0.6;}
	.st7{opacity:0.8;}
	.st8{fill:none;}
	.st9{fill:#2BB673;stroke:#231F20;stroke-width:0.25;stroke-miterlimit:10;}
	.st10{font-size:14px;}
	.st11{font-size:20px;}
	.st12{font-size:23px;}
	.st13{font-size:45px;}
	.st14{font-size:48px;}
	.st15{stroke:#000000;stroke-width:2;stroke-miterlimit:10;}
	.st16{font-family:'PTSans-CaptionBold';}
]]>
</style>
<g class="st6">
	<linearGradient id="SVGID_1_" gradientUnits="userSpaceOnUse" x1="71.875" y1="22.5" x2="117.125" y2="22.5">
		<stop  offset="0" style="stop-color:#FFFFFF"/>
		<stop  offset="1" style="stop-color:#000000"/>
	</linearGradient>
	<polygon class="st0" points="72,45 108,45 117,36 117,0 72,0 	"/>
	<linearGradient id="SVGID_2_" gradientUnits="userSpaceOnUse" x1="53.8755" y1="22.5" x2="90.1255" y2="22.5">
		<stop  offset="0" style="stop-color:#FFFFFF"/>
		<stop  offset="1" style="stop-color:#000000"/>
	</linearGradient>
	<rect x="54" class="st4" width="36" height="45"/>
	<linearGradient id="SVGID_3_" gradientUnits="userSpaceOnUse" x1="26.8755" y1="27.0386" x2="63.1255" y2="27.0386">
		<stop  offset="0" style="stop-color:#FFFFFF"/>
		<stop  offset="1" style="stop-color:#000000"/>
	</linearGradient>
	<polygon class="st1" points="27,0 63,0 63,54 45.001,45 27,54 	"/>
	<polygon class="st9" points="116,0 152,0 152,54 134,45 116,54 	"/>
	<g>
		<polygon class="st2" points="0,0 0,45 18,54 36,45 36,0 		"/>
		<path d="M0,0l0.125,22.5V45l-0.069-0.111l18,8.999h-0.111l18-8.999L35.875,45V0L36,0.125L18,0.108L0,0z M0,0l18-0.108l18-0.017
			c0.069,0,0.125,0.056,0.125,0.125l0,0v45c0,0.049-0.028,0.091-0.069,0.112l-18,8.999c-0.037,0.019-0.078,0.018-0.112,0l-18-8.999
			C-0.1,45.09-0.125,45.046-0.125,45V22.5L0,0z"/>
	</g>
	<g>
		<polygon class="st5" points="144,0 144,45 162,54 180,45 180,0 		"/>
		<path d="M144,0l0.125,22.5V45l-0.069-0.111l18,8.999h-0.111l18-8.999L179.875,45V0L180,0.125l-18-0.017L144,0z M144,0l18-0.108
			l18-0.017c0.069,0,0.125,0.056,0.125,0.125l0,0v45c0,0.049-0.028,0.091-0.069,0.112l-18,8.999c-0.036,0.019-0.078,0.018-0.111,0
			l-18-8.999c-0.044-0.022-0.069-0.066-0.069-0.112V22.5L144,0z"/>
	</g>
</g>
<g class="st7">
	<rect x="2.719" y="3" class="st8" width="30.282" height="39"/>
	<text id="S" transform="matrix(1 0 0 1 5.8599 39.0957)" class="st15 st3 st14">S</text>
	<rect x="39" y="4" class="st8" width="18" height="18"/>
	<text transform="matrix(1 0 0 1 39.0532 21.2959)" class="st15 st3 st12">U</text>
	<rect x="94" y="4" class="st8" width="18" height="18"/>
	<text transform="matrix(1 0 0 1 94.1094 19.04)" class="st15 st3 st11">M</text>
	<rect x="67.001" y="4" class="st8" width="18" height="18"/>
	<text transform="matrix(1 0 0 1 67.1108 19.04)" class="st15 st3 st11">M</text>
	<rect x="122" y="4" class="st8" width="18" height="18"/>
	<text transform="matrix(1 0 0 1 125.25 21.2959)" class="st15 st3 st12">E</text>
	<rect x="147.348" y="4" class="st8" width="28.648" height="36.893"/>
	<text transform="matrix(1 0 0 1 147.9258 37.8398)" class="st15 st3 st13">R</text>
</g>
<g class="st7">
	<rect x="39" y="26" class="st8" width="18" height="18"/>
	<text transform="matrix(1 0 0 1 43.7515 35.8008)" class="st16 st10">C</text>
	<rect x="67" y="26" class="st8" width="18" height="18"/>
	<text transform="matrix(1 0 0 1 71.3945 35.8008)" class="st16 st10">A</text>
	<rect x="95" y="26" class="st8" width="18" height="18"/>
	<text transform="matrix(1 0 0 1 97.9238 35.8008)" class="st16 st10">M</text>
	<rect x="122" y="26" class="st8" width="18" height="18"/>
	<text transform="matrix(1 0 0 1 126.6602 35.8008)" class="st16 st10">P</text>
</g>
</svg>
