<svg version="1.1" xmlns="http://www.w3.org/2000/svg" xmlns:xlink="http://www.w3.org/1999/xlink" x="0px" y="0px" width="100%"
	 height="100%" viewBox="0 0 60 60" style="enable-background:new 0 0 60 60;" xml:space="preserve">
<style type="text/css">
<![CDATA[
	.st0{fill:#B5B5B5;}
	.st1{fill:#B5B5B5;fill-opacity:0.5;stroke:#1E1C1C;stroke-width:0.25;stroke-miterlimit:10;}
	.st2{fill:none;stroke:#231F20;stroke-width:0.5;stroke-linejoin:round;stroke-miterlimit:10;}
	.st3{fill:#231F20;}
	.st4{opacity:0.5;fill:#B5B5B5;stroke:#231F20;stroke-miterlimit:10;}
	.st5{fill:#B5B5B5;stroke:#B5B5B5;stroke-miterlimit:10;}
	.st6{fill:none;fill-opacity:0.5;stroke:#231F20;stroke-width:0.25;stroke-linejoin:round;stroke-miterlimit:10;}
	.st7{fill:none;stroke:#231F20;stroke-width:3;stroke-linecap:square;stroke-miterlimit:10;}
	.st8{fill:none;stroke:#231F20;stroke-width:3;stroke-linecap:square;stroke-linejoin:round;stroke-miterlimit:10;}

    .st0, .st1, .st2, .st3, .st4, .st5, .st6, .st7, .st8{
        transition: all 0.3s;
        -webkit-transition: all 0.3s;
        -moz-transition: all 0.3s;
        -o-transition: all 0.3s;
    }

	#camp-trail:hover .st4{
	    opacity: 1;
	    stroke: white;
	    transition: all 0.3s;
	    -webkit-transition: all 0.3s;
        -moz-transition: all 0.3s;
        -o-transition: all 0.3s;
	}

	#camp-trail:hover .st0{
	    fill: green;
	    transition: all 0.3s;
	    -webkit-transition: all 0.3s;
        -moz-transition: all 0.3s;
        -o-transition: all 0.3s;
	}

	#camp-trail:hover .st5{
	    stroke: green;
	    transition: all 0.3s;
	    -webkit-transition: all 0.3s;
        -moz-transition: all 0.3s;
        -o-transition: all 0.3s;
	}

	#camp-trail:hover .st1, #camp-trail:hover .st6{
	    fill: #585858;
	    transition: all 0.3s;
	    -webkit-transition: all 0.3s;
        -moz-transition: all 0.3s;
        -o-transition: all 0.3s;
	}

]]>
</style>
<g id="camp-trail">
    <g id="circle">
        <circle class="st4" cx="30" cy="30" r="27"/>
    </g>
    <g id="trees">
        <g>
            <line class="st7" x1="20.562" y1="42.062" x2="20.562" y2="51.562"/>
            <g>
                <path class="st0" d="M7.742,41.909c-0.089,0-0.172-0.048-0.216-0.125c-0.045-0.077-0.045-0.173,0-0.25l12.821-22.205
                    c0.044-0.077,0.127-0.125,0.216-0.125s0.172,0.048,0.216,0.125L33.6,41.534c0.044,0.077,0.044,0.173,0,0.25
                    c-0.045,0.077-0.128,0.125-0.217,0.125H7.742z"/>
                <path class="st3" d="M20.563,19.454l12.82,22.205H7.742L20.563,19.454 M20.563,18.954c-0.179,0-0.344,0.095-0.433,0.25
                    L7.309,41.409c-0.089,0.154-0.089,0.346,0,0.5s0.254,0.25,0.433,0.25h25.641c0.179,0,0.344-0.096,0.433-0.25
                    c0.09-0.154,0.09-0.346,0-0.5L20.996,19.204C20.907,19.049,20.742,18.954,20.563,18.954L20.563,18.954z"/>
            </g>
            <g>
                <path class="st0" d="M11.46,29.788c-0.089,0-0.172-0.048-0.216-0.125c-0.045-0.077-0.045-0.173,0-0.25l9.102-15.764
                    c0.044-0.077,0.127-0.125,0.216-0.125s0.172,0.048,0.216,0.125l9.102,15.764c0.045,0.077,0.045,0.173,0,0.25
                    c-0.044,0.077-0.127,0.125-0.216,0.125H11.46z"/>
                <path class="st3" d="M20.562,13.774l9.102,15.764H11.46L20.562,13.774 M20.562,13.274c-0.179,0-0.344,0.095-0.433,0.25
                    l-9.102,15.764c-0.089,0.155-0.089,0.345,0,0.5s0.254,0.25,0.433,0.25h18.204c0.179,0,0.344-0.095,0.433-0.25s0.089-0.345,0-0.5
                    l-9.102-15.764C20.906,13.369,20.741,13.274,20.562,13.274L20.562,13.274z"/>
            </g>
            <g>
                <path class="st0" d="M14.796,19.704c-0.089,0-0.172-0.048-0.216-0.125c-0.045-0.077-0.045-0.173,0-0.25l5.766-9.987
                    c0.044-0.077,0.127-0.125,0.216-0.125s0.172,0.048,0.216,0.125l5.766,9.987c0.045,0.077,0.045,0.173,0,0.25
                    c-0.044,0.077-0.127,0.125-0.216,0.125H14.796z"/>
                <path class="st3" d="M20.562,9.467l5.766,9.987H14.796L20.562,9.467 M20.562,8.967c-0.179,0-0.344,0.095-0.433,0.25l-5.766,9.987
                    c-0.089,0.155-0.089,0.345,0,0.5s0.254,0.25,0.433,0.25h11.532c0.179,0,0.344-0.095,0.433-0.25s0.089-0.345,0-0.5l-5.766-9.987
                    C20.906,9.062,20.741,8.967,20.562,8.967L20.562,8.967z"/>
            </g>
            <polygon class="st5" points="17.971,19.688 18.155,19.234 23.062,19.234 23.233,19.688 		"/>
            <polygon class="st5" points="15.437,29.781 15.635,29.297 25.578,29.297 25.705,29.781 		"/>
        </g>
        <g>
            <line class="st8" x1="29.556" y1="45.625" x2="29.556" y2="51.693"/>
            <g>
                <path class="st0" d="M20.924,45.275c-0.089,0-0.172-0.048-0.216-0.125c-0.045-0.077-0.045-0.173,0-0.25l8.632-14.949
                    c0.044-0.077,0.127-0.125,0.216-0.125s0.172,0.048,0.216,0.125L38.404,44.9c0.044,0.077,0.044,0.173,0,0.25
                    c-0.045,0.077-0.128,0.125-0.217,0.125H20.924z"/>
                <path class="st3" d="M29.556,30.076l8.631,14.949H20.924L29.556,30.076 M29.556,29.576c-0.179,0-0.344,0.095-0.433,0.25
                    l-8.632,14.949c-0.089,0.154-0.089,0.346,0,0.5s0.254,0.25,0.433,0.25h17.263c0.179,0,0.344-0.096,0.433-0.25
                    c0.09-0.154,0.09-0.346,0-0.5l-8.631-14.949C29.9,29.671,29.735,29.576,29.556,29.576L29.556,29.576z"/>
            </g>
            <g>
                <path class="st0" d="M23.428,37.115c-0.089,0-0.172-0.048-0.216-0.125c-0.045-0.077-0.045-0.173,0-0.25l6.128-10.614
                    c0.044-0.077,0.127-0.125,0.216-0.125s0.172,0.048,0.216,0.125L35.9,36.74c0.044,0.077,0.044,0.173,0,0.25
                    c-0.045,0.077-0.128,0.125-0.217,0.125H23.428z"/>
                <path class="st3" d="M29.556,26.251l6.128,10.614H23.428L29.556,26.251 M29.556,25.751c-0.179,0-0.344,0.095-0.433,0.25
                    l-6.128,10.614c-0.089,0.154-0.089,0.346,0,0.5s0.254,0.25,0.433,0.25h12.256c0.179,0,0.344-0.096,0.433-0.25
                    c0.09-0.154,0.09-0.346,0-0.5l-6.127-10.614C29.899,25.847,29.734,25.751,29.556,25.751L29.556,25.751z"/>
            </g>
            <g>
                <path class="st0" d="M25.674,30.326c-0.089,0-0.172-0.048-0.216-0.125c-0.045-0.077-0.045-0.173,0-0.25l3.882-6.724
                    c0.044-0.077,0.127-0.125,0.216-0.125s0.172,0.048,0.216,0.125l3.882,6.724c0.044,0.077,0.044,0.173,0,0.25
                    c-0.045,0.077-0.128,0.125-0.217,0.125H25.674z"/>
                <path class="st3" d="M29.556,23.352l3.882,6.724h-7.764L29.556,23.352 M29.556,22.852c-0.179,0-0.344,0.095-0.433,0.25
                    l-3.882,6.724c-0.089,0.155-0.089,0.345,0,0.5s0.254,0.25,0.433,0.25h7.764c0.179,0,0.344-0.095,0.433-0.25
                    c0.09-0.155,0.09-0.345,0-0.5l-3.881-6.724C29.899,22.947,29.734,22.852,29.556,22.852L29.556,22.852z"/>
            </g>
            <polygon class="st5" points="28.004,30.232 28.111,29.928 30.984,29.928 31.084,30.232 		"/>
            <polygon class="st5" points="26.339,37.028 26.465,36.702 32.787,36.702 32.867,37.028 		"/>
        </g>
    </g>
    <g id="moon">
        <path class="st6" d="M47.25,9.812c0,1.175,0.922,2.125,2.062,2.125"/>
        <circle class="st1" cx="50.281" cy="16.219" r="1.469"/>
        <path class="st2" d="M38.938,5.125c0,8.74,7.072,15.812,15.812,15.812"/>
    </g>
</g>
</svg>
