<svg version="1.1" xmlns="http://www.w3.org/2000/svg" xmlns:xlink="http://www.w3.org/1999/xlink" x="0px" y="0px" width="100%"
	 height="100%" viewBox="0 0 60 60" style="enable-background:new 0 0 60 60;" xml:space="preserve">
<style type="text/css">
<![CDATA[
	.st0{fill:none;stroke:#FFFFFF;stroke-width:0.25;stroke-linecap:square;stroke-miterlimit:10;}
	.st1{opacity:0.5;fill:#B5B5B5;stroke:#231F20;stroke-miterlimit:10;}
	.st2{fill:none;stroke:#FFFFFF;stroke-width:0.25;stroke-miterlimit:10;}
	.st3{fill:#231F20;stroke:#FFFFFF;stroke-miterlimit:10;}

    .st0, .st1, .st2, .st3{
        transition: all 0.3s;
        -webkit-transition: all 0.3s;
        -moz-transition: all 0.3s;
        -o-transition: all 0.3s;
    }

	#camp-sport:hover .st1{
	    opacity: 1;
	    stroke: white;
	    transition: all 0.3s;
	    -webkit-transition: all 0.3s;
        -moz-transition: all 0.3s;
        -o-transition: all 0.3s;
	}

	#camp-sport:hover .st0{
	    stroke: black;
	    transition: all 0.3s;
	    -webkit-transition: all 0.3s;
        -moz-transition: all 0.3s;
        -o-transition: all 0.3s;
	}

	#camp-sport:hover .st3{
	    fill: #CC5200;
	    stroke: black;
	    transition: all 0.3s;
	    -webkit-transition: all 0.3s;
        -moz-transition: all 0.3s;
        -o-transition: all 0.3s;
	}

]]>
</style>
<g id="camp-sport">
    <g id="circle">
        <circle class="st1" cx="30.006" cy="30" r="27"/>
    </g>
    <g id="ball">
        <circle class="st3" cx="29.974" cy="30.031" r="14.098"/>
    </g>
    <g id="lines">
        <path class="st0" d="M28.975,15.934c5.026,0,9.094,6.306,9.094,14.098"/>
        <path class="st0" d="M38.068,30.031c0,7.793-4.067,14.098-9.094,14.098"/>
        <path class="st0" d="M15.876,30.031c0,0.951,6.32,1.719,14.129,1.719"/>
        <path class="st0" d="M30.006,31.75c7.775,0,14.066-0.768,14.066-1.719"/>
        <path class="st0" d="M38.021,31.445c0,0-14.97-2.167-13.961-14.212c0,0,9.578-4.752,17.106,4.227
            C41.166,21.459,45.663,28.639,38.021,31.445z"/>
        <path class="st0" d="M24.011,42.809c0,0,0.402-8.67,14.01-11.363c0,0,5.054,2.324,3.145,7.158"/>
    </g>
</g>
</svg>
