<svg version="1.1" xmlns="http://www.w3.org/2000/svg" xmlns:xlink="http://www.w3.org/1999/xlink" x="0px" y="0px" width="100%"
	 height="100%" viewBox="0 0 60 60" style="enable-background:new 0 0 60 60;" xml:space="preserve">
<style type="text/css">
<![CDATA[
	.st0{fill:#58595B;}
	.st1{fill:none;stroke:#000000;stroke-width:0.25;stroke-linejoin:round;stroke-miterlimit:10;}
	.st2{opacity:0.5;fill:#B5B5B5;stroke:#231F20;stroke-miterlimit:10;}
	.st6{fill:#A7A9AC;}

	.st0, .st1, .st2, .st6{
        transition: all 0.3s;
        -webkit-transition: all 0.3s;
        -moz-transition: all 0.3s;
        -o-transition: all 0.3s;
    }

	#camp-swim:hover .st2{
    	    stroke: white;
    	    opacity: 1;
    	    transition: all 0.3s;
    	    -webkit-transition: all 0.3s;
            -moz-transition: all 0.3s;
            -o-transition: all 0.3s;
    	}

    	#camp-swim:hover .st1{
    	    fill: orange;
    	    opacity: 1;
    	    stroke: black;
    	    transition: all 0.3s;
    	    -webkit-transition: all 0.3s;
            -moz-transition: all 0.3s;
            -o-transition: all 0.3s;
    	}

    	#camp-swim:hover .st0{
    	    fill: #297ACC;
    	    transition: all 0.3s;
    	    -webkit-transition: all 0.3s;
            -moz-transition: all 0.3s;
            -o-transition: all 0.3s;
    	}

    	#camp-swim:hover .st6{
            fill: #5CB8E6;
            transition: all 0.3s;
            -webkit-transition: all 0.3s;
            -moz-transition: all 0.3s;
            -o-transition: all 0.3s;
        }
]]>
</style>

<g id="camp-swim">

    <g id="circle">
        <circle class="st2" cx="30.04" cy="30" r="27"/>
    </g>
    <g id="Layer_4">
        <g>
            <path class="st0" d="M3.545,29.979c0,0,3.877-9.965,12.95-7.68c0,0-3.878-0.346-4.64,4.155c0,0-0.277,3.35,2.909,3.337
                s1.593-7.007,9.557-7.007c0,0-2.562,0.761-1.801,2.493c0,0,1.898,4.848,7.563,4.017v24.932
                C30.084,54.226,5.022,54.226,3.545,29.979z"/>
            <path class="st0" d="M24.327,30.207c0,0,4.218-9.777,13.29-7.492c0,0-3.879-0.346-4.641,4.155c0,0-0.276,3.35,2.909,3.337
                s1.593-7.007,9.557-7.007c0,0-2.562,0.761-1.8,2.493c0,0,1.898,4.848,7.562,4.017L30.084,54.226
                C30.084,54.226,28.35,55.223,24.327,30.207z"/>
            <path class="st0" d="M45.503,32.631c0,0,1.744-10.321,10.488-7.904c0,0-5.104,3.138,0.628,4.093c0,0,0.099,4.207-0.892,6.775l0,0
                l-0.831,2.424c0,0-3.481,8.271-9.394,11.707v0.316C45.503,50.043,45.503,50.043,45.503,32.631z"/>
            <path class="st0" d="M30.084,54.226c0,0,8.838,0.126,14.968-4.853c4.246-3.449,6.966-9.339,5.476-19.461"/>
        </g>
        <g>
            <path class="st6" d="M3.709,32.338c0,0,3.877-9.965,12.95-7.68c0,0-3.878-0.346-4.64,4.155c0,0-0.277,3.35,2.909,3.337
                s1.593-7.007,9.557-7.007c0,0-2.562,0.761-1.8,2.493c0,0,1.899,4.848,7.563,4.017v24.932C30.248,56.584,6.549,57,3.709,32.338z"/>
            <path class="st6" d="M24.491,32.565c0,0,4.218-9.777,13.291-7.492c0,0-3.879-0.346-4.641,4.155c0,0-0.276,3.35,2.909,3.337
                s1.593-7.007,9.557-7.007c0,0-2.562,0.761-1.8,2.493c0,0,1.898,4.848,7.562,4.017L30.248,56.584
                C30.248,56.584,28.514,57.581,24.491,32.565z"/>
            <path class="st6" d="M45.216,34.636c0,0,2.42-10.365,11.164-7.948c0,0-5.492,3.236,0.239,4.191c0,0-0.188,4.154-1.179,6.723l0,0
                l-0.831,2.424c0,0-3.481,8.271-9.394,11.706v0.316C45.216,52.048,45.216,52.048,45.216,34.636z"/>
            <path class="st6" d="M30.248,56.584c0,0,8.838,0.126,14.968-4.853c4.246-3.449,6.966-9.339,5.476-19.461"/>
        </g>
    </g>
    <g id="fish">
        <path class="st1" d="M22.728,48.568c0,0,0.138-0.57,1.239-0.729c0,0-0.256-0.512,0.157-0.531c0.414-0.02,1.574,0,1.574,0
            s-0.905,0.453-0.669,0.492c0.235,0.039,1.259,0.512,1.751,0.412c0.492-0.098,1.947-0.648,1.947-0.648l-0.768,0.768l0.512,0.236
            c0,0-2.223-0.158-1.594,0c0,0-0.728,0.295-1.15,0.236L25.815,49c0,0-0.295,0.314-0.668,0.158c-0.374-0.158-0.118-0.314-0.118-0.314
            s-0.177,0.076-0.473,0.115C24.134,49.016,23.468,48.996,22.728,48.568z"/>
        <g>
            <path d="M23.504,48.25c-0.06,0-0.108,0.049-0.108,0.109s0.048,0.107,0.108,0.107c0.06,0,0.108-0.047,0.108-0.107
                S23.564,48.25,23.504,48.25L23.504,48.25z"/>
        </g>
        <g>
            <path d="M23.876,47.838c0,0,0.012-0.01,0.033-0.029c0.01-0.018,0.071-0.047,0.14-0.01c0.038,0.018,0.108,0.041,0.132,0.082
                c0.033,0.043,0.054,0.082,0.079,0.127c0.002,0.047,0.003,0.094,0,0.135c-0.003,0.043-0.037,0.084-0.052,0.115
                c-0.055,0.064-0.12,0.102-0.115,0.102l-0.012,0.006c-0.004,0.004-0.009,0.002-0.012-0.002c-0.001-0.002-0.001-0.004-0.001-0.004
                s-0.003-0.148-0.048-0.283c-0.024-0.154-0.135-0.23-0.148-0.215c-0.002,0.004-0.007,0.004-0.01,0.002
                c-0.003-0.002-0.004-0.006-0.001-0.01c0,0,0.001,0,0.001-0.002L23.876,47.838z"/>
        </g>
        <g>
            <path d="M24.093,48.359c-0.005,0,0.061,0.043,0.116,0.107c0.054,0.066,0.062,0.174,0.055,0.27
                c-0.04,0.096-0.094,0.193-0.202,0.238c-0.052,0.027-0.109,0.02-0.145,0.008c-0.035-0.014-0.043-0.025-0.043-0.025l-0.007-0.01
                c-0.003-0.004-0.002-0.01,0.002-0.014c0.001,0,0.003-0.002,0.005-0.002c-0.001-0.002,0.037-0.002,0.072-0.049
                s0.058-0.125,0.076-0.203c0.043-0.154,0.046-0.32,0.046-0.32c0-0.006,0.004-0.01,0.009-0.01c0.002,0,0.003,0,0.005,0.002
                L24.093,48.359z"/>
        </g>
    </g>

</g>

</svg>
